<mxfile host="65bd71144e">
    <diagram id="JKjoJuHJY3vX4fIAWOxv" name="Page-1">
        <mxGraphModel dx="817" dy="284" grid="1" gridSize="10" guides="1" tooltips="1" connect="1" arrows="1" fold="1" page="1" pageScale="1" pageWidth="850" pageHeight="1100" math="0" shadow="0">
            <root>
                <mxCell id="0"/>
                <mxCell id="1" parent="0"/>
                <mxCell id="2" value="" style="rounded=0;whiteSpace=wrap;html=1;" vertex="1" parent="1">
                    <mxGeometry x="170" y="90" width="380" height="130" as="geometry"/>
                </mxCell>
                <mxCell id="3" value="mongo db&lt;br&gt;init strategy" style="shape=datastore;whiteSpace=wrap;html=1;" vertex="1" parent="1">
                    <mxGeometry x="320" y="112.5" width="80" height="85" as="geometry"/>
                </mxCell>
                <mxCell id="4" value="mongo db&lt;br&gt;best strategy" style="shape=datastore;whiteSpace=wrap;html=1;" vertex="1" parent="1">
                    <mxGeometry x="430" y="112.5" width="80" height="85" as="geometry"/>
                </mxCell>
                <mxCell id="5" value="prometeus&lt;br&gt;time series &lt;br&gt;data stream&lt;br&gt;eurusd 1 minute" style="shape=datastore;whiteSpace=wrap;html=1;" vertex="1" parent="1">
                    <mxGeometry x="191" y="110" width="99" height="90" as="geometry"/>
                </mxCell>
                <mxCell id="6" value="eurusd 1m" style="text;strokeColor=none;fillColor=none;html=1;fontSize=24;fontStyle=1;verticalAlign=middle;align=center;" vertex="1" parent="1">
                    <mxGeometry x="350" y="40" width="100" height="40" as="geometry"/>
                </mxCell>
            </root>
        </mxGraphModel>
    </diagram>
</mxfile>